<svg width="256" height="256" viewBox="0 0 256 256" fill="none" xmlns="http://www.w3.org/2000/svg">
  <defs>
    <linearGradient id="bg" x1="36" y1="28" x2="222" y2="230" gradientUnits="userSpaceOnUse">
      <stop stop-color="#111827"/>
      <stop offset="1" stop-color="#1F2937"/>
    </linearGradient>
    <linearGradient id="orb" x1="72" y1="60" x2="196" y2="204" gradientUnits="userSpaceOnUse">
      <stop stop-color="#FDBA74"/>
      <stop offset="0.5" stop-color="#F97316"/>
      <stop offset="1" stop-color="#FB7185"/>
    </linearGradient>
    <linearGradient id="spark" x1="158" y1="40" x2="214" y2="96" gradientUnits="userSpaceOnUse">
      <stop stop-color="#FFF7ED"/>
      <stop offset="1" stop-color="#FDE68A"/>
    </linearGradient>
  </defs>
  <rect x="18" y="18" width="220" height="220" rx="56" fill="url(#bg)"/>
  <rect x="18" y="18" width="220" height="220" rx="56" stroke="rgba(255,255,255,0.08)"/>
  <circle cx="118" cy="138" r="58" fill="url(#orb)"/>
  <circle cx="118" cy="138" r="37" fill="#111827" fill-opacity="0.22"/>
  <path d="M182.5 46L188.2 62.8L205 68.5L188.2 74.2L182.5 91L176.8 74.2L160 68.5L176.8 62.8L182.5 46Z" fill="url(#spark)"/>
  <path d="M78 164L118 88L141.6 132H173L130.8 202L108 160L78 164Z" fill="#FFF7ED" fill-opacity="0.96"/>
</svg>
